<svg width="16" height="16" viewBox="0 0 16 16" fill="none" xmlns="http://www.w3.org/2000/svg">
<g clip-path="url(#clip0_40_105)">
<path d="M11.6667 1.27768C10.916 1.28936 10.1817 1.49891 9.5379 1.88519C8.8941 2.27147 8.36363 2.82079 8.00005 3.47768C7.63648 2.82079 7.10601 2.27147 6.46221 1.88519C5.81841 1.49891 5.08409 1.28936 4.33339 1.27768C3.13668 1.32967 2.00919 1.85318 1.19724 2.73383C0.385293 3.61449 -0.0451135 4.7807 5.35741e-05 5.97768C5.35741e-05 9.00901 3.19072 12.3197 5.86672 14.5643C6.4642 15.0664 7.21962 15.3417 8.00005 15.3417C8.78048 15.3417 9.53591 15.0664 10.1334 14.5643C12.8094 12.3197 16.0001 9.00901 16.0001 5.97768C16.0452 4.7807 15.6148 3.61449 14.8029 2.73383C13.9909 1.85318 12.8634 1.32967 11.6667 1.27768ZM9.27672 13.5443C8.91938 13.8453 8.46722 14.0103 8.00005 14.0103C7.53289 14.0103 7.08073 13.8453 6.72339 13.5443C3.29805 10.6703 1.33339 7.91301 1.33339 5.97768C1.28781 5.13416 1.57763 4.30683 2.13963 3.67615C2.70163 3.04546 3.49021 2.66258 4.33339 2.61101C5.17656 2.66258 5.96515 3.04546 6.52714 3.67615C7.08914 4.30683 7.37896 5.13416 7.33339 5.97768C7.33339 6.15449 7.40363 6.32406 7.52865 6.44908C7.65367 6.57411 7.82324 6.64435 8.00005 6.64435C8.17686 6.64435 8.34643 6.57411 8.47146 6.44908C8.59648 6.32406 8.66672 6.15449 8.66672 5.97768C8.62115 5.13416 8.91096 4.30683 9.47296 3.67615C10.035 3.04546 10.8235 2.66258 11.6667 2.61101C12.5099 2.66258 13.2985 3.04546 13.8605 3.67615C14.4225 4.30683 14.7123 5.13416 14.6667 5.97768C14.6667 7.91301 12.7021 10.6703 9.27672 13.5417V13.5443Z" fill="#166FF6"/>
</g>
<defs>
<clipPath id="clip0_40_105">
<rect width="16" height="16" fill="white"/>
</clipPath>
</defs>
</svg>
