<svg width="16" height="16" viewBox="0 0 16 16" fill="none" xmlns="http://www.w3.org/2000/svg">
<path d="M15.7875 8.18204C15.7881 7.63689 15.7417 7.09269 15.6488 6.55542H8.05334V9.63644H12.4036C12.3146 10.1285 12.1262 10.5976 11.8498 11.0154C11.5733 11.4332 11.2145 11.7911 10.7951 12.0675V14.0674H13.3914C14.9116 12.6752 15.7875 10.6164 15.7875 8.18204Z" fill="#4285F4"/>
<path d="M8.05376 16C10.2272 16 12.0573 15.2911 13.3918 14.0689L10.7955 12.069C10.0729 12.5557 9.14218 12.8334 8.05376 12.8334C5.953 12.8334 4.16993 11.4268 3.53231 9.5313H0.857702V11.5923C1.52805 12.9173 2.55596 14.0311 3.82667 14.8094C5.09738 15.5877 6.56087 15.9999 8.05376 16Z" fill="#34A853"/>
<path d="M3.53223 9.53148C3.19514 8.53823 3.19514 7.4626 3.53223 6.46935V4.4083H0.857612C0.29369 5.52288 0 6.75301 0 8.00042C0 9.24783 0.29369 10.478 0.857612 11.5925L3.53223 9.53148Z" fill="#FBBC04"/>
<path d="M8.05376 3.1671C9.20235 3.14846 10.3122 3.57951 11.1434 4.36707L13.4421 2.0838C11.9845 0.723921 10.0534 -0.0226734 8.05376 0.00052486C6.56087 0.000592441 5.09738 0.412796 3.82667 1.19112C2.55596 1.96944 1.52805 3.08324 0.857702 4.40818L3.53231 6.46923C4.16993 4.57373 5.953 3.1671 8.05376 3.1671Z" fill="#EA4335"/>
</svg>
