<svg width="387" height="38" viewBox="0 0 387 38" fill="none" xmlns="http://www.w3.org/2000/svg">
<path d="M41 18.8627H18M18 18.8627L26.2073 9.3627M18 18.8627L26.2073 28.3627" stroke="#C9C9C9" stroke-width="4" stroke-linecap="round" stroke-linejoin="round"/>
<g opacity="0.4">
<path d="M363.34 20.0766C363.389 19.6802 363.426 19.2839 363.426 18.8628C363.426 18.4417 363.389 18.0453 363.34 17.649L365.953 15.6054C366.188 15.4196 366.25 15.0852 366.102 14.8127L363.625 10.5273C363.476 10.2548 363.142 10.1557 362.869 10.2548L359.785 11.4933C359.141 10.9979 358.447 10.5892 357.692 10.2796L357.221 6.99737C357.184 6.70011 356.924 6.47717 356.614 6.47717H351.66C351.351 6.47717 351.09 6.70011 351.053 6.99737L350.583 10.2796C349.827 10.5892 349.133 11.0103 348.489 11.4933L345.405 10.2548C345.121 10.1433 344.799 10.2548 344.65 10.5273L342.173 14.8127C342.012 15.0852 342.086 15.4196 342.321 15.6054L344.935 17.649C344.885 18.0453 344.848 18.454 344.848 18.8628C344.848 19.2715 344.885 19.6802 344.935 20.0766L342.321 22.1202C342.086 22.306 342.024 22.6404 342.173 22.9129L344.65 27.1983C344.799 27.4708 345.133 27.5698 345.405 27.4708L348.489 26.2322C349.133 26.7276 349.827 27.1363 350.583 27.446L351.053 30.7282C351.09 31.0254 351.351 31.2484 351.66 31.2484H356.614C356.924 31.2484 357.184 31.0254 357.221 30.7282L357.692 27.446C358.447 27.1363 359.141 26.7152 359.785 26.2322L362.869 27.4708C363.154 27.5822 363.476 27.4708 363.625 27.1983L366.102 22.9129C366.25 22.6404 366.188 22.306 365.953 22.1202L363.34 20.0766ZM354.137 23.1977C351.747 23.1977 349.802 21.2532 349.802 18.8628C349.802 16.4723 351.747 14.5278 354.137 14.5278C356.528 14.5278 358.472 16.4723 358.472 18.8628C358.472 21.2532 356.528 23.1977 354.137 23.1977Z" fill="black"/>
</g>
</svg>
