<svg width="23" height="23" viewBox="0 0 23 23" fill="none" xmlns="http://www.w3.org/2000/svg">
<path d="M21.9809 1.01963C21.327 0.366718 20.4407 0 19.5166 0C18.5926 0 17.7063 0.366718 17.0524 1.01963L1.40911 16.6633C0.961131 17.1087 0.605935 17.6386 0.364068 18.2222C0.1222 18.8059 -0.00153699 19.4317 1.44095e-05 20.0634V22.0381C1.44095e-05 22.2932 0.101351 22.5379 0.28173 22.7183C0.462109 22.8986 0.706756 23 0.961851 23H2.9365C3.5682 23.0018 4.19398 22.8782 4.77761 22.6365C5.36124 22.3948 5.89113 22.0397 6.3366 21.5918L21.9809 5.94722C22.6335 5.29335 23 4.40726 23 3.48343C23 2.55959 22.6335 1.6735 21.9809 1.01963ZM4.97656 20.2318C4.43409 20.7706 3.70113 21.0741 2.9365 21.0763H1.92369V20.0634C1.92271 19.6844 1.99694 19.3089 2.14206 18.9587C2.28718 18.6085 2.50032 18.2906 2.76914 18.0233L14.6411 6.15113L16.8533 8.36341L4.97656 20.2318ZM20.6199 4.58716L18.2095 6.99853L15.9973 4.79107L18.4086 2.37969C18.5539 2.23475 18.7262 2.11984 18.9159 2.04151C19.1056 1.96319 19.3088 1.923 19.514 1.92322C19.7192 1.92344 19.9224 1.96408 20.1119 2.04282C20.3014 2.12155 20.4735 2.23684 20.6184 2.3821C20.7634 2.52736 20.8783 2.69975 20.9566 2.88942C21.0349 3.07909 21.0751 3.28233 21.0749 3.48753C21.0747 3.69274 21.034 3.89589 20.9553 4.08539C20.8766 4.27489 20.7613 4.44702 20.616 4.59197L20.6199 4.58716Z" fill="white"/>
</svg>
