<svg width="18" height="15" viewBox="0 0 18 15" fill="none" xmlns="http://www.w3.org/2000/svg">
<g clip-path="url(#clip0_38_781)">
<path d="M10.841 1.8861C10.357 1.82692 9.86786 1.85488 9.40144 1.96837C8.93502 2.08187 8.50046 2.27868 8.12261 2.54756C7.74476 2.81644 7.431 3.15212 7.19927 3.53542C6.96755 3.91873 6.82239 4.34215 6.77209 4.78149L6.66748 5.69304L5.66334 5.57047C4.68602 5.45117 3.70829 5.6892 2.94522 6.23219C2.18216 6.77518 1.69628 7.57866 1.59447 8.46586C1.49266 9.35306 1.78326 10.2513 2.40234 10.963C3.02142 11.6747 3.91827 12.1416 4.89559 12.2609L5.89973 12.3834L13.2697 13.2831L14.0375 6.59266L14.1421 5.68111C14.1926 5.2418 14.1473 4.79513 14.0087 4.36662C13.8702 3.93812 13.641 3.53617 13.3345 3.18375C13.0279 2.83133 12.6499 2.53533 12.2221 2.31268C11.7942 2.09002 11.3249 1.94507 10.841 1.8861V1.8861Z" stroke="white" stroke-width="2" stroke-linecap="round" stroke-linejoin="round"/>
</g>
<defs>
<clipPath id="clip0_38_781">
<rect width="18" height="15" fill="white"/>
</clipPath>
</defs>
</svg>
