<svg width="19" height="10" viewBox="0 0 19 10" fill="none" xmlns="http://www.w3.org/2000/svg">
<path d="M9.50622 8.66116L9.50622 8.66101L9.4938 8.66116C8.30487 8.67582 7.15482 8.20312 6.29467 7.33988L0.621216 1.39223C0.542105 1.29068 0.499013 1.15972 0.50409 1.02337C0.509364 0.881745 0.565975 0.750766 0.657677 0.655643C0.748885 0.561032 0.867508 0.508917 0.988659 0.504063C1.10468 0.499415 1.22093 0.538161 1.31583 0.617259L7.00175 6.51534L7.00162 6.51546L7.01105 6.52474C7.67989 7.18305 8.57047 7.5532 9.50001 7.5532C10.4295 7.5532 11.3201 7.18305 11.989 6.52474L11.9891 6.52486L11.9983 6.51534L17.6842 0.617259C17.7791 0.538161 17.8953 0.499415 18.0114 0.504063C18.1325 0.508917 18.2511 0.561032 18.3423 0.655643C18.434 0.750765 18.4907 0.881742 18.4959 1.02338C18.501 1.15971 18.4579 1.29068 18.3788 1.39222L12.7053 7.33989C11.8452 8.20312 10.6951 8.67582 9.50622 8.66116Z" fill="black" stroke="#91919F"/>
</svg>
