<svg width="9" height="9" viewBox="0 0 9 9" fill="none" xmlns="http://www.w3.org/2000/svg">
<path d="M8.86667 4.45205L4.37779 0.168767C4.32185 0.115097 4.25531 0.0725456 4.18202 0.0435771C4.10873 0.0146086 4.03015 -0.000202181 3.95082 2.08441e-06H0.90575C0.665614 0.000264186 0.435393 0.0914042 0.265591 0.253428C0.0957898 0.415452 0.000274683 0.635128 0 0.864263V3.76454C0.000132105 3.84322 0.0170875 3.92104 0.0498286 3.99324C0.0825697 4.06545 0.130408 4.13052 0.190415 4.18447L4.96562 8.46481C5.04929 8.54029 5.16013 8.58225 5.27527 8.58203C5.2809 8.58203 5.28656 8.58193 5.29226 8.58172C5.35213 8.57982 5.41099 8.56652 5.4654 8.54261C5.5198 8.51869 5.56866 8.48465 5.60908 8.44247L8.87976 5.05015C8.95912 4.96822 9.00209 4.86012 8.99965 4.74858C8.9972 4.63704 8.94954 4.53075 8.86667 4.45205ZM5.2679 7.94525L0.603833 3.76454V0.864263C0.603928 0.787886 0.635767 0.714662 0.692367 0.660655C0.748967 0.606648 0.825706 0.576267 0.90575 0.576176H3.95082L8.33731 4.76176L5.2679 7.94525Z" fill="white"/>
<path d="M2.49109 1.44043C2.29702 1.44043 2.10731 1.49534 1.94595 1.59822C1.78458 1.7011 1.65882 1.84733 1.58455 2.01841C1.51028 2.1895 1.49085 2.37775 1.52871 2.55937C1.56657 2.74099 1.66003 2.90782 1.79725 3.03877C1.93448 3.16971 2.10932 3.25888 2.29966 3.29501C2.49 3.33113 2.68729 3.31259 2.86659 3.24173C3.04588 3.17086 3.19913 3.05086 3.30695 2.89688C3.41477 2.74291 3.47232 2.56189 3.47232 2.37671C3.47202 2.12848 3.36855 1.8905 3.1846 1.71497C3.00064 1.53945 2.75124 1.44071 2.49109 1.44043ZM2.49109 2.73682C2.41645 2.73682 2.34348 2.7157 2.28142 2.67613C2.21936 2.63656 2.17098 2.58032 2.14242 2.51452C2.11386 2.44872 2.10638 2.37631 2.12094 2.30646C2.13551 2.23661 2.17145 2.17244 2.22423 2.12208C2.27701 2.07172 2.34425 2.03742 2.41746 2.02352C2.49067 2.00963 2.56655 2.01676 2.63551 2.04402C2.70447 2.07127 2.76341 2.11743 2.80488 2.17665C2.84635 2.23587 2.86848 2.30549 2.86848 2.37671C2.86837 2.47219 2.82857 2.56372 2.75782 2.63123C2.68707 2.69874 2.59114 2.73671 2.49109 2.73682Z" fill="white"/>
</svg>
