<svg width="16" height="14" viewBox="0 0 16 14" fill="none" xmlns="http://www.w3.org/2000/svg">
<path d="M8.73842 2.82527C8.47913 2.78805 8.21745 2.80266 7.96833 2.86826C7.7192 2.93387 7.48752 3.04919 7.28651 3.20763C7.0855 3.36607 6.91911 3.56453 6.79684 3.79167C6.67456 4.01881 6.59881 4.27018 6.57389 4.53142L6.52208 5.07344L5.98407 4.99633C5.46043 4.92129 4.93821 5.05888 4.53228 5.37885C4.12635 5.69881 3.86997 6.17494 3.81954 6.70248C3.76911 7.23002 3.92875 7.76577 4.26336 8.19187C4.59797 8.61796 5.08012 8.8995 5.60376 8.97454L6.14176 9.05164L10.0905 9.61755L10.4708 5.63935L10.5226 5.09733C10.5477 4.83611 10.5214 4.57011 10.4453 4.31454C10.3691 4.05896 10.2447 3.81882 10.079 3.60783C9.91328 3.39683 9.70961 3.21912 9.47959 3.08485C9.24958 2.95057 8.99773 2.86237 8.73842 2.82527V2.82527Z" stroke="white" stroke-width="2" stroke-linecap="round" stroke-linejoin="round"/>
</svg>
