<svg width="20" height="17" viewBox="0 0 20 17" fill="none" xmlns="http://www.w3.org/2000/svg">
<path d="M0 7.83316C0 8.44665 0.497908 8.94456 1.1114 8.94456C1.73379 8.94456 2.2228 8.44665 2.2228 7.83316V7.25523C2.2228 5.80596 3.21862 4.87238 4.73013 4.87238H11.4074V6.73065C11.4074 7.26412 11.7453 7.60199 12.2877 7.60199C12.5277 7.60199 12.75 7.51308 12.9278 7.37082L16.431 4.4545C16.8666 4.10774 16.8577 3.52092 16.431 3.16527L12.9278 0.240063C12.75 0.0889121 12.5277 0 12.2877 0C11.7453 0 11.4074 0.337866 11.4074 0.871339V2.68515H4.90795C1.89383 2.68515 0 4.36559 0 7.04184V7.83316ZM8.56224 10.2694C8.56224 9.73588 8.22437 9.38912 7.6909 9.38912C7.45084 9.38912 7.21967 9.48692 7.04184 9.62918L3.54759 12.5455C3.11192 12.8923 3.11192 13.4702 3.54759 13.8347L7.04184 16.7599C7.21967 16.9111 7.45084 17 7.6909 17C8.22437 17 8.56224 16.6621 8.56224 16.1287V14.306H15.0706C18.0847 14.306 19.9697 12.6166 19.9697 9.94927V9.15795C19.9697 8.53556 19.4806 8.03766 18.8583 8.03766C18.2448 8.03766 17.7469 8.53556 17.7469 9.15795V9.73588C17.7469 11.1763 16.7599 12.1187 15.2395 12.1187H8.56224V10.2694Z" fill="#BEC4C8"/>
</svg>
