<svg width="28" height="29" viewBox="0 0 28 29" fill="none" xmlns="http://www.w3.org/2000/svg">
<path d="M7.79492 24.046C9.0166 24.046 11.4863 22.8171 13.3496 21.4425C19.5547 21.5609 24.1953 17.8469 24.1953 12.9677C24.1953 8.26144 19.6514 4.47461 13.9912 4.47461C8.33105 4.47461 3.7959 8.26144 3.7959 12.9677C3.7959 15.9625 5.58887 18.6297 8.33984 20.0225C7.96191 20.7598 7.29395 21.7702 6.91602 22.2982C6.35352 23.072 6.74023 24.046 7.79492 24.046ZM8.8584 22.1617C8.74414 22.2072 8.7002 22.1434 8.7793 22.0433C9.22754 21.4789 9.88672 20.5777 10.2119 19.9405C10.4756 19.4399 10.3877 19.0029 9.8252 18.7298C7.14453 17.4281 5.58887 15.3435 5.58887 12.9677C5.58887 9.30828 9.31543 6.33161 13.9912 6.33161C18.667 6.33161 22.3936 9.30828 22.3936 12.9677C22.3936 16.6271 18.667 19.6128 13.9912 19.6128C13.833 19.6128 13.5869 19.6037 13.2881 19.6037C12.9102 19.5946 12.6289 19.713 12.2773 19.9952C11.2139 20.8144 9.64062 21.834 8.8584 22.1617Z" fill="#72FFDD"/>
</svg>
