<svg width="19" height="19" viewBox="0 0 19 19" fill="none" xmlns="http://www.w3.org/2000/svg">
<g clip-path="url(#clip0_48_726)">
<path d="M14.5996 7.75706L18.4928 17.2738H16.586L15.5234 14.6784H11.9044L10.8435 17.2738H8.93761L12.83 7.75706H14.5996ZM7.0786 0.835765V2.56609H12.3875V4.29641H10.6462C9.96367 6.30538 8.87433 8.15937 7.44314 9.7478C8.08137 10.3046 8.77363 10.7992 9.51009 11.2246L8.84559 12.8494C7.89486 12.3222 7.00568 11.6953 6.19377 10.9798C4.61311 12.3785 2.74122 13.4258 0.706975 14.0494L0.232709 12.3805C1.97567 11.8371 3.58179 10.9403 4.94617 9.74866C3.93631 8.63082 3.09517 7.37748 2.44831 6.02673H4.43032C4.92347 6.91686 5.51482 7.75153 6.19377 8.51581C7.2999 7.26919 8.17162 5.84099 8.76861 4.29728L0 4.29641V2.56609H5.30895V0.835765H7.0786ZM13.7148 10.2531L12.6114 12.948H14.8164L13.7148 10.2531Z" fill="#555757"/>
</g>
<defs>
<clipPath id="clip0_48_726">
<rect width="18.4934" height="18.4934" fill="white" transform="scale(1.02738)"/>
</clipPath>
</defs>
</svg>
