<svg width="30" height="30" viewBox="0 0 30 30" fill="none" xmlns="http://www.w3.org/2000/svg">
<g opacity="0.4">
<path d="M24.2875 16.225C24.3375 15.825 24.375 15.425 24.375 15C24.375 14.575 24.3375 14.175 24.2875 13.775L26.925 11.7125C27.1625 11.525 27.225 11.1875 27.075 10.9125L24.575 6.58752C24.425 6.31252 24.0875 6.21252 23.8125 6.31252L20.7 7.56251C20.05 7.06252 19.35 6.65002 18.5875 6.33752L18.1125 3.02504C18.075 2.72504 17.8126 2.50004 17.5001 2.50004H12.5001C12.1876 2.50004 11.9251 2.72504 11.8876 3.02504L11.4126 6.33752C10.6501 6.65002 9.95009 7.07502 9.3001 7.56251L6.18761 6.31252C5.90011 6.20002 5.57511 6.31252 5.42512 6.58752L2.92513 10.9125C2.76263 11.1875 2.83763 11.525 3.07513 11.7125L5.71261 13.775C5.66261 14.175 5.62511 14.5875 5.62511 15C5.62511 15.4125 5.66261 15.825 5.71261 16.225L3.07513 18.2875C2.83763 18.475 2.77513 18.8125 2.92513 19.0875L5.42512 23.4124C5.57511 23.6874 5.91261 23.7874 6.18761 23.6874L9.3001 22.4374C9.95009 22.9374 10.6501 23.3499 11.4126 23.6624L11.8876 26.9749C11.9251 27.2749 12.1876 27.4999 12.5001 27.4999H17.5001C17.8126 27.4999 18.075 27.2749 18.1125 26.9749L18.5875 23.6624C19.35 23.3499 20.05 22.9249 20.7 22.4374L23.8125 23.6874C24.1 23.7999 24.425 23.6874 24.575 23.4124L27.075 19.0875C27.225 18.8125 27.1625 18.475 26.925 18.2875L24.2875 16.225ZM15.0001 19.375C12.5876 19.375 10.6251 17.4125 10.6251 15C10.6251 12.5875 12.5876 10.625 15.0001 10.625C17.4126 10.625 19.375 12.5875 19.375 15C19.375 17.4125 17.4126 19.375 15.0001 19.375Z" fill="black"/>
</g>
</svg>
