<svg width="19" height="19" viewBox="0 0 19 19" fill="none" xmlns="http://www.w3.org/2000/svg">
<g clip-path="url(#clip0_48_747)">
<path d="M17.6692 3.50793L6.7292 14.4472C6.65565 14.521 6.56824 14.5796 6.47198 14.6196C6.37573 14.6596 6.27253 14.6802 6.16831 14.6802C6.06408 14.6802 5.96088 14.6596 5.86463 14.6196C5.76837 14.5796 5.68096 14.521 5.60741 14.4472L1.37674 10.2126C1.30319 10.1387 1.21578 10.0801 1.11953 10.0401C1.02327 10.0002 0.920073 9.97957 0.815848 9.97957C0.711622 9.97957 0.608421 10.0002 0.512169 10.0401C0.415916 10.0801 0.328505 10.1387 0.254952 10.2126C0.181108 10.2861 0.122514 10.3735 0.0825338 10.4698C0.0425533 10.566 0.0219727 10.6692 0.0219727 10.7734C0.0219727 10.8777 0.0425533 10.9809 0.0825338 11.0771C0.122514 11.1734 0.181108 11.2608 0.254952 11.3343L4.4872 15.5658C4.93366 16.0114 5.53869 16.2617 6.16949 16.2617C6.8003 16.2617 7.40533 16.0114 7.85179 15.5658L18.791 4.62893C18.8648 4.55539 18.9233 4.46803 18.9632 4.37185C19.0031 4.27567 19.0236 4.17256 19.0236 4.06843C19.0236 3.9643 19.0031 3.86119 18.9632 3.76501C18.9233 3.66883 18.8648 3.58147 18.791 3.50793C18.7175 3.43408 18.6301 3.37549 18.5338 3.33551C18.4376 3.29553 18.3344 3.27495 18.2301 3.27495C18.1259 3.27495 18.0227 3.29553 17.9265 3.33551C17.8302 3.37549 17.7428 3.43408 17.6692 3.50793Z" fill="#555757"/>
</g>
<defs>
<clipPath id="clip0_48_747">
<rect width="19" height="19" fill="white"/>
</clipPath>
</defs>
</svg>
