<svg width="18" height="18" viewBox="0 0 18 18" fill="none" xmlns="http://www.w3.org/2000/svg">
<path d="M16.6415 9C16.6415 13.2203 13.2203 16.6415 9 16.6415C4.77971 16.6415 1.35849 13.2203 1.35849 9C1.35849 4.77971 4.77971 1.35849 9 1.35849C13.2203 1.35849 16.6415 4.77971 16.6415 9Z" fill="#BEC7C5"/>
<path fill-rule="evenodd" clip-rule="evenodd" d="M9 16.6415C13.1421 16.6415 16.6415 13.1421 16.6415 9C16.6415 4.85786 13.1421 1.35849 9 1.35849C4.85786 1.35849 1.35849 4.85786 1.35849 9C1.35849 13.1421 4.85786 16.6415 9 16.6415ZM9 18C13.9706 18 18 13.9706 18 9C18 4.02944 13.9706 0 9 0C4.02944 0 0 4.02944 0 9C0 13.9706 4.02944 18 9 18Z" fill="white"/>
<path d="M14.0943 9C14.0943 11.8135 11.8135 14.0943 9 14.0943C6.18647 14.0943 3.90566 11.8135 3.90566 9C3.90566 6.18647 6.18647 3.90566 9 3.90566C11.8135 3.90566 14.0943 6.18647 14.0943 9Z" fill="white"/>
</svg>
