<svg width="15" height="14" viewBox="0 0 15 14" fill="none" xmlns="http://www.w3.org/2000/svg">
<g clip-path="url(#clip0_48_743)">
<path d="M11.875 0.583239H3.125C2.2965 0.584165 1.50222 0.891753 0.916387 1.43853C0.330551 1.98531 0.000992411 2.72664 0 3.49991L0 10.4999C0.000992411 11.2732 0.330551 12.0145 0.916387 12.5613C1.50222 13.1081 2.2965 13.4156 3.125 13.4166H11.875C12.7035 13.4156 13.4978 13.1081 14.0836 12.5613C14.6694 12.0145 14.999 11.2732 15 10.4999V3.49991C14.999 2.72664 14.6694 1.98531 14.0836 1.43853C13.4978 0.891753 12.7035 0.584165 11.875 0.583239ZM3.125 1.74991H11.875C12.2492 1.75059 12.6147 1.85579 12.9243 2.05196C13.234 2.24813 13.4737 2.52629 13.6125 2.85066L8.82625 7.31841C8.47402 7.64584 7.99713 7.82968 7.5 7.82968C7.00287 7.82968 6.52598 7.64584 6.17375 7.31841L1.3875 2.85066C1.52634 2.52629 1.76601 2.24813 2.07565 2.05196C2.3853 1.85579 2.75076 1.75059 3.125 1.74991ZM11.875 12.2499H3.125C2.62772 12.2499 2.15081 12.0655 1.79917 11.7373C1.44754 11.4092 1.25 10.964 1.25 10.4999V4.37491L5.29 8.14324C5.87664 8.68939 6.67141 8.99609 7.5 8.99609C8.32859 8.99609 9.12336 8.68939 9.71 8.14324L13.75 4.37491V10.4999C13.75 10.964 13.5525 11.4092 13.2008 11.7373C12.8492 12.0655 12.3723 12.2499 11.875 12.2499Z" fill="#555757"/>
</g>
<defs>
<clipPath id="clip0_48_743">
<rect width="15" height="14" fill="white"/>
</clipPath>
</defs>
</svg>
