<svg width="364" height="24" viewBox="0 0 364 24" fill="none" xmlns="http://www.w3.org/2000/svg">
<rect x="29.5" y="0.5" width="334" height="21" rx="10.5" stroke="#F0EDED"/>
<path fill-rule="evenodd" clip-rule="evenodd" d="M48.2632 10.7105C48.2632 12.9487 46.4487 14.7632 44.2105 14.7632C41.9723 14.7632 40.1579 12.9487 40.1579 10.7105C40.1579 8.47232 41.9723 6.65789 44.2105 6.65789C46.4487 6.65789 48.2632 8.47232 48.2632 10.7105ZM48.2816 13.9629C48.9947 13.0715 49.4211 11.9408 49.4211 10.7105C49.4211 7.83283 47.0882 5.5 44.2105 5.5C41.3328 5.5 39 7.83283 39 10.7105C39 13.5882 41.3328 15.9211 44.2105 15.9211C45.4408 15.9211 46.5715 15.4947 47.4629 14.7816L49.0117 16.3304C49.2378 16.5565 49.6043 16.5565 49.8304 16.3304C50.0565 16.1043 50.0565 15.7378 49.8304 15.5117L48.2816 13.9629Z" fill="#F0EDED"/>
<mask id="mask0_22_570" style="mask-type:luminance" maskUnits="userSpaceOnUse" x="0" y="3" width="18" height="18">
<path d="M17.8424 3H0V20.1488H17.8424V3Z" fill="white"/>
</mask>
<g mask="url(#mask0_22_570)">
<path fill-rule="evenodd" clip-rule="evenodd" d="M6.19526 3C6.71775 3 7.14136 3.3491 7.14136 3.77905V10.0151C7.14136 10.4463 6.71775 10.7953 6.19526 10.7953C5.67263 10.7953 5.24902 10.4463 5.24902 10.0151V3.77905C5.24902 3.3491 5.67263 3 6.19526 3Z" fill="#F0EDED"/>
<path fill-rule="evenodd" clip-rule="evenodd" d="M6.51053 6.1174H1.14874C0.62625 6.1174 0.202637 6.46651 0.202637 6.89768C0.202637 7.32763 0.62625 7.67671 1.14874 7.67671H6.51053V6.1174ZM9.0336 7.67671H18.1802C18.7027 7.67671 19.1263 7.32763 19.1263 6.89768C19.1263 6.46651 18.7027 6.1174 18.1802 6.1174H9.0336V7.67671Z" fill="#F0EDED"/>
<path fill-rule="evenodd" clip-rule="evenodd" d="M13.1338 20.1488C12.6114 20.1488 12.1877 19.7997 12.1877 19.3697V13.1337C12.1877 12.7025 12.6114 12.3534 13.1338 12.3534C13.6565 12.3534 14.0801 12.7025 14.0801 13.1337V19.3697C14.0801 19.7997 13.6565 20.1488 13.1338 20.1488Z" fill="#F0EDED"/>
<path fill-rule="evenodd" clip-rule="evenodd" d="M12.8184 17.0314H18.1802C18.7027 17.0314 19.1263 16.6823 19.1263 16.2511C19.1263 15.8212 18.7027 15.4721 18.1802 15.4721H12.8184V17.0314ZM10.2954 15.4721H1.14874C0.62625 15.4721 0.202637 15.8212 0.202637 16.2511C0.202637 16.6823 0.62625 17.0314 1.14874 17.0314H10.2954V15.4721Z" fill="#F0EDED"/>
</g>
</svg>
